<svg xmlns="http://www.w3.org/2000/svg" width="256" height="256" fill="none" viewBox="0 0 256 256"><g id="amp-web-server"><path id="Rectangle" fill="#0d1117" fill-rule="evenodd" d="M0 0h256v256H0z"/><g id="Group" transform="translate(10 148)"><path id="rouge" fill="#d52b1e" fill-rule="evenodd" d="m8.967 0 24.637 8.967-8.967 24.637L0 24.637z" transform="translate(1.105 6.659)"/><path id="blue" fill="#006fff" fill-rule="evenodd" d="m22.705 0 13.11 22.705-22.706 13.11L0 13.108z" transform="translate(0 .853)"/><path id="rect-rouge" fill="#d52b1e" fill-rule="evenodd" d="M0 0h185v20H0z" transform="translate(41)"/><path id="rect-blanc" fill="#fff" fill-rule="evenodd" d="M0 0h30.698v20.465H0z" transform="translate(9.62)"/><path id="batteries" fill="#fff" d="M5.596 3.812v1.94H3.848v4.508q0 .534.24.721.244.189.63.188.181 0 .363-.033l.279-.052.405 1.922q-.195.06-.546.142a4.5 4.5 0 0 1-.852.1q-1.404.06-2.252-.61-.85-.669-.845-2.038V5.75H0V3.81l1.27.001v-2.23h2.578v2.23zm7.516 9.49q-1.429 0-2.463-.584a3.95 3.95 0 0 1-1.59-1.66q-.558-1.076-.557-2.55 0-1.435.557-2.52a4.1 4.1 0 0 1 1.569-1.691c.677-.404 1.468-.606 2.381-.606q1.227 0 2.217.521.988.521 1.569 1.573.58 1.05.581 2.633v.709H11.05v.006q0 1.042.567 1.642.568.6 1.537.6.648 0 1.117-.272.474-.272.666-.806l2.383.157q-.27 1.298-1.378 2.073-1.106.775-2.83.775m-2.063-5.775h3.902q-.004-.83-.533-1.37-.524-.54-1.367-.54-.86 0-1.41.558a2.02 2.02 0 0 0-.592 1.352m9.711 5.594V3.81h2.499v1.625h.097q.254-.867.854-1.312a2.24 2.24 0 0 1 1.378-.445q.43 0 .81.09V6.06a2.7 2.7 0 0 0-.5-.1 5 5 0 0 0-.589-.04q-.85 0-1.412.537-.559.537-.56 1.397v5.267zm9.523 0V3.81h2.578v9.31zM31.58 2.612q-.57 0-.98-.385a1.22 1.22 0 0 1-.412-.924q0-.54.412-.921.41-.382.98-.382.573 0 .985.382.413.381.412.921.001.54-.412.924a1.4 1.4 0 0 1-.985.385m9.273 10.69q-1.428 0-2.463-.584a3.95 3.95 0 0 1-1.59-1.66q-.558-1.076-.557-2.55 0-1.435.557-2.52a4.1 4.1 0 0 1 1.57-1.691q1.013-.606 2.38-.606 1.227 0 2.218.521.989.521 1.568 1.573.582 1.05.582 2.633v.709H38.79v.006q0 1.042.568 1.642t1.537.6q.647 0 1.117-.272.474-.272.666-.806l2.384.157q-.27 1.298-1.38 2.073-1.104.775-2.83.775M38.79 7.527h3.902q-.008-.83-.533-1.37-.527-.54-1.367-.54-.858 0-1.41.558a2.02 2.02 0 0 0-.592 1.352m17.444-1.06-2.361.145a1.34 1.34 0 0 0-.49-.77q-.393-.321-1.065-.321-.597 0-1.013.251-.414.252-.407.67a.7.7 0 0 0 .263.564q.269.23.916.37l1.682.339q2.679.551 2.686 2.52-.001.916-.535 1.607-.536.691-1.468 1.076-.931.384-2.135.384-1.845 0-2.94-.772a2.96 2.96 0 0 1-1.276-2.106l2.534-.133q.121.57.56.86.438.29 1.128.29.677 0 1.091-.266.416-.267.42-.679-.016-.69-1.19-.927l-1.61-.32q-2.695-.54-2.686-2.661-.003-1.345 1.075-2.122 1.079-.775 2.863-.775c1.173 0 2.1.248 2.773.745q1.013.746 1.185 2.03m10.049 6.654V3.81h2.577v9.31zm1.293-10.509q-.57 0-.98-.385a1.22 1.22 0 0 1-.412-.924q0-.54.412-.921.41-.382.98-.382.573 0 .985.382.41.381.412.921 0 .54-.412.924a1.4 1.4 0 0 1-.985.385m9.32 5.127v5.382H74.32V3.81h2.456v1.643h.11q.313-.811 1.036-1.288.723-.475 1.756-.475c.97 0 1.744.312 2.33.936q.878.936.878 2.567v5.927h-2.578V7.654q.006-.855-.436-1.336-.44-.482-1.215-.482-.78 0-1.268.5-.486.5-.493 1.403m15.624 5.563q-1.43 0-2.452-.609A4.05 4.05 0 0 1 88.492 11q-.548-1.085-.547-2.496-.001-1.43.553-2.512A4.1 4.1 0 0 1 90.074 4.3q1.022-.61 2.432-.61 1.216 0 2.132.443.918.443 1.446 1.243.531.8.584 1.878h-2.431q-.104-.697-.543-1.124-.437-.427-1.145-.427-.895 0-1.44.721t-.545 2.042q.001 1.334.542 2.064.54.73 1.443.73.665 0 1.119-.403t.569-1.148h2.431q-.06 1.066-.578 1.878a3.5 3.5 0 0 1-1.423 1.264q-.91.45-2.148.451M104.32.71v12.412h-2.577V.709zm10.56 8.448V3.812h2.576v9.309h-2.474V11.43h-.097a2.74 2.74 0 0 1-1.045 1.315q-.727.497-1.773.497-1.405 0-2.272-.937-.868-.937-.874-2.566V3.812h2.576v5.466q.005.825.443 1.303.435.48 1.168.48.694 0 1.236-.486.542-.485.536-1.418m10.621 4.115a3.46 3.46 0 0 1-1.912-.548q-.852-.548-1.356-1.619-.502-1.069-.502-2.627 0-1.6.519-2.663.516-1.064 1.371-1.594a3.5 3.5 0 0 1 1.872-.53q.781 0 1.305.263.523.264.846.652.325.387.493.77h.079V.709h2.571v12.412h-2.541V11.63h-.109a3.1 3.1 0 0 1-.507.766 2.6 2.6 0 0 1-.857.628q-.523.248-1.272.248m.817-2.054q.93 0 1.443-.755.511-.754.511-1.997 0-1.248-.507-1.984-.51-.737-1.447-.737-.957 0-1.454.755-.501.754-.5 1.966 0 1.218.502 1.985t1.452.767m14.224 2.084q-1.426 0-2.463-.584a3.96 3.96 0 0 1-1.59-1.66q-.558-1.076-.557-2.55 0-1.435.557-2.52a4.1 4.1 0 0 1 1.569-1.691q1.014-.606 2.382-.606 1.227 0 2.217.521.988.521 1.568 1.573.582 1.05.582 2.633v.709h-6.327v.006q0 1.042.568 1.642t1.537.6q.647 0 1.118-.272t.666-.806l2.385.157c-.183.865-.641 1.556-1.382 2.073q-1.105.775-2.83.775m-2.053-5.775h3.902q-.006-.83-.532-1.37t-1.368-.54q-.858 0-1.41.558a2.02 2.02 0 0 0-.592 1.352m15.686 5.745a3.46 3.46 0 0 1-1.912-.548q-.851-.548-1.355-1.619-.502-1.069-.502-2.627 0-1.6.518-2.663.516-1.064 1.372-1.594a3.5 3.5 0 0 1 1.872-.53q.781 0 1.304.263.524.264.847.652.323.387.493.77h.079V.709h2.571v12.412h-2.541V11.63h-.109a3.1 3.1 0 0 1-.508.766 2.6 2.6 0 0 1-.856.628q-.523.248-1.273.248m.818-2.054q.93 0 1.443-.755.511-.754.511-1.997 0-1.248-.507-1.984-.509-.737-1.447-.737-.957 0-1.454.755-.5.754-.5 1.966 0 1.218.502 1.985.503.767 1.452.767" transform="translate(43.57 3.41)"/><path id="Shape" fill="#fff" stroke="#fff" stroke-width=".25" d="M6.822.974a5.849 5.849 0 1 0 0 11.697 5.849 5.849 0 0 0 0-11.697Zm-2.68 3.655a2.68 2.68 0 0 1 2.68-2.679A2.68 2.68 0 0 1 9.5 4.63v.731a.24.24 0 0 1-.245.245H8.77a.24.24 0 0 1-.245-.245V4.63c0-2.258-3.41-2.258-3.41 0v.732a.24.24 0 0 1-.245.245h-.487a.24.24 0 0 1-.245-.245V4.63zm6.578 5.604a.49.49 0 0 1-.487.486H3.41a.49.49 0 0 1-.487-.486V6.335a.49.49 0 0 1 .487-.487h6.822a.49.49 0 0 1 .486.487zM3.898 6.456v3.656a.12.12 0 0 1-.121.12h-.245a.12.12 0 0 1-.121-.12V6.456c0-.069.052-.121.12-.121h.246c.068 0 .12.052.12.12Zm3.897 1.34a.97.97 0 0 1-.486.836V9.5a.24.24 0 0 1-.245.245h-.487a.24.24 0 0 1-.245-.245v-.87a.969.969 0 0 1 .487-1.81c.54 0 .976.435.976.975ZM6.822 0A6.82 6.82 0 0 0 0 6.822a6.82 6.82 0 0 0 6.822 6.821 6.82 6.82 0 0 0 6.821-6.821A6.82 6.82 0 0 0 6.823 0Zm0 .487a6.335 6.335 0 1 1 0 12.669 6.335 6.335 0 0 1 0-12.67Z" transform="translate(209.184 3.709)"/><path id="bat" fill="#d52b1e" fill-rule="evenodd" d="M4.281 0v13.136h2.944v-1.597h.091q.286.68.928 1.209.64.528 1.7.529 1.033 0 1.882-.568.822-.55 1.318-1.62.163.956.812 1.495.867.718 2.205.718 1.935 0 2.713-1.539h.073v1.373h2.797V6.44q0-.453-.101-.847h.815v4.791q-.012 1.494.86 2.232.873.738 2.449.66.54-.03.923-.124.384-.093.597-.157l-.45-2.264a4 4 0 0 1-.29.06 2 2 0 0 1-.36.036q-.36 0-.557-.177-.199-.176-.198-.612V5.593h1.685v-2.31h-1.685V.924h-2.974v2.36h-1.234v1.404l-.018-.024q-.539-.731-1.472-1.12-.933-.387-2.125-.387-1.886 0-2.94.891-1.02.86-1.22 2.146a5 5 0 0 0-.295-.834q-.522-1.12-1.368-1.661a3.3 3.3 0 0 0-1.824-.542q-1.108 0-1.743.567-.634.568-.903 1.248h-.06V0zm9.45 8.414q0-1.086-.203-1.93l2.705.102q.098-.476.457-.744.358-.27.949-.27.547 0 .869.27.323.27.323.763v.032q0 .45-.508.61t-1.706.269a6.2 6.2 0 0 0-1.733.394 2.8 2.8 0 0 0-1.157.818q.004-.155.004-.314m-6.197-.238q0 1.2.453 1.912t1.268.712q.827 0 1.269-.715.44-.715.44-1.909 0-1.185-.44-1.895-.441-.709-1.269-.709-.815 0-1.268.7-.453.699-.453 1.904m11.122 2.056q-.502.448-1.213.448-.517 0-.846-.256-.327-.257-.328-.744 0-.943 1.32-1.155.413-.063.866-.16.453-.096.703-.237v.936q0 .718-.503 1.168M.459 12.762q.466.488 1.123.488.626 0 1.1-.488.475-.487.48-1.18a1.62 1.62 0 0 0-.48-1.167q-.474-.48-1.1-.481-.657 0-1.123.48-.466.482-.459 1.168a1.62 1.62 0 0 0 .46 1.18" transform="translate(10.963 4.118)"/></g><g id="amp" transform="translate(18 59)"><path id="Path" fill="#fff" d="M17.967 69H0L23.337 0h22.256l23.336 69H50.963l-4.56-14.487H22.526zm8.544-27.155h15.907l-7.7-24.46h-.54zM76.393 0h20.702l17.562 42.72h.81L133.028 0h20.703v69h-16.279V26.616h-.574l-16.616 41.946H109.86L93.245 26.38h-.574V69H76.393zM164.2 69V0h28.572q7.767 0 13.424 3.015t8.73 8.39T218 23.886q0 7.143-3.14 12.483t-8.9 8.271q-5.757 2.931-13.695 2.931h-11.348V69zm16.718-34.567h8.24q5.639 0 8.578-2.881 2.937-2.88 2.938-7.665-.001-4.818-2.938-7.63-2.939-2.814-8.578-2.814h-8.24z"/></g></g></svg>